{
  "source": "C:\\Users\\Peter\\Desktop\\stuff\\MIUN\\quantitative_research\\video_compression\\videos\\BVI-HD\\BVI-HD_CDVL_videos\\ORIG\\Lightreef_1920x1080_30fps.mp4",
  "output": "C:\\Users\\Peter\\Desktop\\stuff\\MIUN\\quantitative_research\\video_compression\\compressed_videos\\BVI-HD\\hevc\\4\\Lightreef_1920x1080_30fps_hevc.mp4",
  "codec": "hevc",
  "ok": "Input #0, mov,mp4,m4a,3gp,3g2,mj2, from 'C:\\Users\\Peter\\Desktop\\stuff\\MIUN\\quantitative_research\\video_compression\\videos\\BVI-HD\\BVI-HD_CDVL_videos\\ORIG\\Lightreef_1920x1080_30fps.mp4':\n  Metadata:\n    major_brand     : isom\n    minor_version   : 512\n    compatible_brands: isomiso2avc1mp41\n    encoder         : Lavf54.28.101\n  Duration: 00:00:05.00, start: 0.000000, bitrate: 361719 kb/s\n  Stream #0:0[0x1](und): Video: h264 (High 4:4:4 Predictive) (avc1 / 0x31637661), yuv420p(progressive), 1920x1080, 361715 kb/s, 30 fps, 30 tbr, 30 tbn (default)\n    Metadata:\n      handler_name    : VideoHandler\n      vendor_id       : [0][0][0][0]\n[out#0/mp4 @ 000002213c04ab00] Codec AVOption b:a (set bitrate (in bits/s)) has not been used for any stream. The most likely reason is either wrong type (e.g. a video option with no video streams) or that it is a private option of some decoder which was not actually used for any stream.\nStream mapping:\n  Stream #0:0 -> #0:0 (h264 (native) -> hevc (libx265))\nPress [q] to stop, [?] for help\n[libx265 @ 000002213cbc0bc0] Unknown option: \"aq-mode.\nx265 [info]: HEVC encoder version 4.1+190-8f11c33ac\nx265 [info]: build info [Windows][GCC 15.1.0][64 bit] 10bit\nx265 [info]: using cpu capabilities: MMX2 SSE2Fast LZCNT SSSE3 SSE4.2 AVX FMA3 BMI2 AVX2\nx265 [info]: Main 10 profile, Level-4 (Main tier)\nx265 [info]: Thread pool created using 12 threads\nx265 [info]: Slices                              : 1\nx265 [info]: frame threads / pool features       : 3 / wpp(17 rows)\nx265 [info]: Coding QT: max CU size, min CU size : 64 / 8\nx265 [info]: Residual QT: max TU size, max depth : 32 / 1 inter / 1 intra\nx265 [info]: ME / range / subpel / merge         : star / 57 / 3 / 3\nx265 [info]: Keyframe min / max / scenecut / bias  : 25 / 250 / 40 / 5.00 \nx265 [info]: Lookahead / bframes / badapt        : 25 / 4 / 2\nx265 [info]: b-pyramid / weightp / weightb       : 1 / 1 / 0\nx265 [info]: References / ref-limit  cu / depth  : 4 / on / on\nx265 [info]: AQ: mode / str / qg-size / cu-tree  : 2 / 1.0 / 32 / 1\nx265 [info]: Rate Control / qCompress            : ABR-4000 kbps / 0.60\nx265 [info]: VBV/HRD buffer / max-rate / init    : 4000 / 4000 / 0.750\nx265 [info]: tools: rect limit-modes rd=4 psy-rd=2.00 rdoq=2 psy-rdoq=1.00\nx265 [info]: tools: rskip mode=1 signhide tmvp strong-intra-smoothing lslices=4\nx265 [info]: tools: deblock sao dhdr10-info\nOutput #0, mp4, to 'C:\\Users\\Peter\\Desktop\\stuff\\MIUN\\quantitative_research\\video_compression\\compressed_videos\\BVI-HD\\hevc\\4\\Lightreef_1920x1080_30fps_hevc.mp4':\n  Metadata:\n    major_brand     : isom\n    minor_version   : 512\n    compatible_brands: isomiso2avc1mp41\n    encoder         : Lavf62.3.100\n  Stream #0:0(und): Video: hevc (hev1 / 0x31766568), yuv420p10le(tv, progressive), 1920x1080, q=2-31, 4000 kb/s, 30 fps, 15360 tbn (default)\n    Metadata:\n      encoder         : Lavc62.11.100 libx265\n      handler_name    : VideoHandler\n      vendor_id       : [0][0][0][0]\n    Side data:\n      cpb: bitrate max/min/avg: 4000000/0/4000000 buffer size: 4000000 vbv_delay: N/A\nframe=    0 fps=0.0 q=0.0 size=       0KiB time=N/A bitrate=N/A speed=N/A elapsed=0:00:01.08    \nframe=    0 fps=0.0 q=0.0 size=       0KiB time=N/A bitrate=N/A speed=N/A elapsed=0:00:01.64    \nframe=    0 fps=0.0 q=0.0 size=       0KiB time=N/A bitrate=N/A speed=N/A elapsed=0:00:02.19    \nframe=    0 fps=0.0 q=0.0 size=       0KiB time=N/A bitrate=N/A speed=N/A elapsed=0:00:02.75    \nframe=    0 fps=0.0 q=0.0 size=       0KiB time=N/A bitrate=N/A speed=N/A elapsed=0:00:03.27    \nframe=    0 fps=0.0 q=0.0 size=       0KiB time=N/A bitrate=N/A speed=N/A elapsed=0:00:03.79    \nframe=    0 fps=0.0 q=0.0 size=       0KiB time=N/A bitrate=N/A speed=N/A elapsed=0:00:04.35    \nframe=    0 fps=0.0 q=0.0 size=       0KiB time=N/A bitrate=N/A speed=N/A elapsed=0:00:04.92    \nframe=    0 fps=0.0 q=0.0 size=       0KiB time=N/A bitrate=N/A speed=N/A elapsed=0:00:05.43    \nframe=    0 fps=0.0 q=0.0 size=       0KiB time=N/A bitrate=N/A speed=N/A elapsed=0:00:05.98    \nframe=    0 fps=0.0 q=0.0 size=       0KiB time=N/A bitrate=N/A speed=N/A elapsed=0:00:06.51    \nframe=    0 fps=0.0 q=0.0 size=       0KiB time=N/A bitrate=N/A speed=N/A elapsed=0:00:07.03    \nframe=    0 fps=0.0 q=0.0 size=       0KiB time=N/A bitrate=N/A speed=N/A elapsed=0:00:07.55    \nframe=    0 fps=0.0 q=0.0 size=       0KiB time=N/A bitrate=N/A speed=N/A elapsed=0:00:08.08    \nframe=    0 fps=0.0 q=0.0 size=       0KiB time=N/A bitrate=N/A speed=N/A elapsed=0:00:08.60    \nframe=    0 fps=0.0 q=0.0 size=       0KiB time=N/A bitrate=N/A speed=N/A elapsed=0:00:09.12    \nframe=    0 fps=0.0 q=0.0 size=       0KiB time=N/A bitrate=N/A speed=N/A elapsed=0:00:09.64    \nframe=    0 fps=0.0 q=0.0 size=       0KiB time=N/A bitrate=N/A speed=N/A elapsed=0:00:10.17    \nframe=    0 fps=0.0 q=0.0 size=       0KiB time=N/A bitrate=N/A speed=N/A elapsed=0:00:10.71    \nframe=    0 fps=0.0 q=0.0 size=       0KiB time=N/A bitrate=N/A speed=N/A elapsed=0:00:11.23    \nframe=    0 fps=0.0 q=0.0 size=       0KiB time=N/A bitrate=N/A speed=N/A elapsed=0:00:11.76    \nframe=    0 fps=0.0 q=0.0 size=       0KiB time=N/A bitrate=N/A speed=N/A elapsed=0:00:12.31    \nframe=    0 fps=0.0 q=0.0 size=       0KiB time=N/A bitrate=N/A speed=N/A elapsed=0:00:12.83    \nframe=    0 fps=0.0 q=0.0 size=       0KiB time=N/A bitrate=N/A speed=N/A elapsed=0:00:13.37    \nframe=    1 fps=0.1 q=33.7 size=       0KiB time=-00:00:00.03 bitrate=N/A speed=N/A elapsed=0:00:13.88    \nframe=    1 fps=0.1 q=33.7 size=       0KiB time=-00:00:00.03 bitrate=N/A speed=N/A elapsed=0:00:14.41    \nframe=    2 fps=0.1 q=40.8 size=       0KiB time=00:00:00.00 bitrate=N/A speed=   0x elapsed=0:00:14.96    \nframe=    2 fps=0.1 q=40.8 size=       0KiB time=00:00:00.00 bitrate=N/A speed=   0x elapsed=0:00:15.48    \nframe=    3 fps=0.2 q=45.8 size=       0KiB time=00:00:00.03 bitrate=  10.6kbits/s speed=0.00208x elapsed=0:00:16.01    \nframe=    3 fps=0.2 q=45.8 size=       0KiB time=00:00:00.03 bitrate=  10.6kbits/s speed=0.00201x elapsed=0:00:16.54    \nframe=    3 fps=0.2 q=45.8 size=       0KiB time=00:00:00.03 bitrate=  10.6kbits/s speed=0.00195x elapsed=0:00:17.07    \nframe=    4 fps=0.2 q=47.0 size=       0KiB time=00:00:00.06 bitrate=   5.3kbits/s speed=0.00379x elapsed=0:00:17.61    \nframe=    4 fps=0.2 q=47.0 size=       0KiB time=00:00:00.06 bitrate=   5.3kbits/s speed=0.00367x elapsed=0:00:18.14    \nframe=    4 fps=0.2 q=47.0 size=       0KiB time=00:00:00.06 bitrate=   5.3kbits/s speed=0.00357x elapsed=0:00:18.68    \nframe=    4 fps=0.2 q=47.0 size=       0KiB time=00:00:00.06 bitrate=   5.3kbits/s speed=0.00347x elapsed=0:00:19.21    \nframe=    4 fps=0.2 q=47.0 size=       0KiB time=00:00:00.06 bitrate=   5.3kbits/s speed=0.00338x elapsed=0:00:19.72    \nframe=    4 fps=0.2 q=47.0 size=       0KiB time=00:00:00.06 bitrate=   5.3kbits/s speed=0.00329x elapsed=0:00:20.26    \nframe=    4 fps=0.2 q=47.0 size=       0KiB time=00:00:00.06 bitrate=   5.3kbits/s speed=0.00321x elapsed=0:00:20.78    \nframe=    4 fps=0.2 q=47.0 size=       0KiB time=00:00:00.06 bitrate=   5.3kbits/s speed=0.00313x elapsed=0:00:21.31    \nframe=    5 fps=0.2 q=44.8 size=       0KiB time=00:00:00.10 bitrate=   3.5kbits/s speed=0.00458x elapsed=0:00:21.85    \nframe=    5 fps=0.2 q=44.8 size=       0KiB time=00:00:00.10 bitrate=   3.5kbits/s speed=0.00446x elapsed=0:00:22.39    \nframe=    5 fps=0.2 q=44.8 size=       0KiB time=00:00:00.10 bitrate=   3.5kbits/s speed=0.00436x elapsed=0:00:22.93    \nframe=    6 fps=0.3 q=44.0 size=       0KiB time=00:00:00.13 bitrate=   2.6kbits/s speed=0.00568x elapsed=0:00:23.45    \nframe=    6 fps=0.3 q=44.0 size=       0KiB time=00:00:00.13 bitrate=   2.6kbits/s speed=0.00556x elapsed=0:00:23.98    \nframe=    6 fps=0.2 q=44.0 size=       0KiB time=00:00:00.13 bitrate=   2.6kbits/s speed=0.00544x elapsed=0:00:24.51    \nframe=    7 fps=0.3 q=39.2 size=       0KiB time=00:00:00.16 bitrate=   2.1kbits/s speed=0.00666x elapsed=0:00:25.02    \nframe=    7 fps=0.3 q=39.2 size=       0KiB time=00:00:00.16 bitrate=   2.1kbits/s speed=0.00652x elapsed=0:00:25.55    \nframe=    7 fps=0.3 q=39.2 size=       0KiB time=00:00:00.16 bitrate=   2.1kbits/s speed=0.0064x elapsed=0:00:26.06    \nframe=    8 fps=0.3 q=41.8 size=       0KiB time=00:00:00.20 bitrate=   1.8kbits/s speed=0.00753x elapsed=0:00:26.57    \nframe=    9 fps=0.3 q=43.3 size=       0KiB time=00:00:00.23 bitrate=   1.5kbits/s speed=0.00861x elapsed=0:00:27.09    \nframe=    9 fps=0.3 q=43.3 size=       0KiB time=00:00:00.23 bitrate=   1.5kbits/s speed=0.00845x elapsed=0:00:27.62    \nframe=    9 fps=0.3 q=43.3 size=       0KiB time=00:00:00.23 bitrate=   1.5kbits/s speed=0.00829x elapsed=0:00:28.15    \nframe=    9 fps=0.3 q=43.3 size=       0KiB time=00:00:00.23 bitrate=   1.5kbits/s speed=0.00814x elapsed=0:00:28.68    \nframe=   10 fps=0.3 q=42.6 size=       0KiB time=00:00:00.26 bitrate=   1.3kbits/s speed=0.00913x elapsed=0:00:29.20    \nframe=   10 fps=0.3 q=42.6 size=       0KiB time=00:00:00.26 bitrate=   1.3kbits/s speed=0.00897x elapsed=0:00:29.73    \nframe=   10 fps=0.3 q=42.6 size=       0KiB time=00:00:00.26 bitrate=   1.3kbits/s speed=0.00881x elapsed=0:00:30.26    \nframe=   11 fps=0.4 q=42.4 size=       0KiB time=00:00:00.30 bitrate=   1.2kbits/s speed=0.00974x elapsed=0:00:30.79    \nframe=   11 fps=0.4 q=42.4 size=       0KiB time=00:00:00.30 bitrate=   1.2kbits/s speed=0.00958x elapsed=0:00:31.30    \nframe=   11 fps=0.3 q=42.4 size=       0KiB time=00:00:00.30 bitrate=   1.2kbits/s speed=0.00943x elapsed=0:00:31.82    \nframe=   11 fps=0.3 q=42.4 size=       0KiB time=00:00:00.30 bitrate=   1.2kbits/s speed=0.00927x elapsed=0:00:32.36    \nframe=   12 fps=0.4 q=36.9 size=       0KiB time=00:00:00.33 bitrate=   1.1kbits/s speed=0.0101x elapsed=0:00:32.88    \nframe=   13 fps=0.4 q=39.7 size=       0KiB time=00:00:00.36 bitrate=   1.0kbits/s speed=0.011x elapsed=0:00:33.41    \nframe=   13 fps=0.4 q=39.7 size=       0KiB time=00:00:00.36 bitrate=   1.0kbits/s speed=0.0108x elapsed=0:00:33.97    \nframe=   13 fps=0.4 q=39.7 size=       0KiB time=00:00:00.36 bitrate=   1.0kbits/s speed=0.0106x elapsed=0:00:34.52    \nframe=   13 fps=0.4 q=39.7 size=       0KiB time=00:00:00.36 bitrate=   1.0kbits/s speed=0.0105x elapsed=0:00:35.05    \nframe=   13 fps=0.4 q=39.7 size=       0KiB time=00:00:00.36 bitrate=   1.0kbits/s speed=0.0103x elapsed=0:00:35.60    \nframe=   13 fps=0.4 q=39.7 size=       0KiB time=00:00:00.36 bitrate=   1.0kbits/s speed=0.0101x elapsed=0:00:36.12    \nframe=   13 fps=0.4 q=39.7 size=       0KiB time=00:00:00.36 bitrate=   1.0kbits/s speed=0.01x elapsed=0:00:36.64    \nframe=   14 fps=0.4 q=41.2 size=       0KiB time=00:00:00.40 bitrate=   0.9kbits/s speed=0.0108x elapsed=0:00:37.14    \nframe=   14 fps=0.4 q=41.2 size=       0KiB time=00:00:00.40 bitrate=   0.9kbits/s speed=0.0106x elapsed=0:00:37.66    \nframe=   14 fps=0.4 q=41.2 size=       0KiB time=00:00:00.40 bitrate=   0.9kbits/s speed=0.0105x elapsed=0:00:38.18    \nframe=   15 fps=0.4 q=40.6 size=       0KiB time=00:00:00.43 bitrate=   0.8kbits/s speed=0.0112x elapsed=0:00:38.70    \nframe=   16 fps=0.4 q=35.6 size=       0KiB time=00:00:00.46 bitrate=   0.8kbits/s speed=0.0119x elapsed=0:00:39.22    \nframe=   16 fps=0.4 q=35.6 size=       0KiB time=00:00:00.46 bitrate=   0.8kbits/s speed=0.0117x elapsed=0:00:39.74    \nframe=   18 fps=0.4 q=42.0 size=     256KiB time=00:00:00.53 bitrate=3932.8kbits/s speed=0.0132x elapsed=0:00:40.26    \nframe=   18 fps=0.4 q=42.0 size=     256KiB time=00:00:00.53 bitrate=3932.8kbits/s speed=0.0131x elapsed=0:00:40.77    \nframe=   18 fps=0.4 q=42.0 size=     256KiB time=00:00:00.53 bitrate=3932.8kbits/s speed=0.0129x elapsed=0:00:41.34    \nframe=   18 fps=0.4 q=42.0 size=     256KiB time=00:00:00.53 bitrate=3932.8kbits/s speed=0.0127x elapsed=0:00:41.88    \nframe=   18 fps=0.4 q=42.0 size=     256KiB time=00:00:00.53 bitrate=3932.8kbits/s speed=0.0126x elapsed=0:00:42.44    \nframe=   18 fps=0.4 q=42.0 size=     256KiB time=00:00:00.53 bitrate=3932.8kbits/s speed=0.0124x elapsed=0:00:43.02    \nframe=   19 fps=0.4 q=41.8 size=     256KiB time=00:00:00.56 bitrate=3701.5kbits/s speed=0.013x elapsed=0:00:43.53    \nframe=   19 fps=0.4 q=41.8 size=     256KiB time=00:00:00.56 bitrate=3701.5kbits/s speed=0.0129x elapsed=0:00:44.06    \nframe=   19 fps=0.4 q=41.8 size=     256KiB time=00:00:00.56 bitrate=3701.5kbits/s speed=0.0127x elapsed=0:00:44.60    \nframe=   19 fps=0.4 q=41.8 size=     256KiB time=00:00:00.56 bitrate=3701.5kbits/s speed=0.0126x elapsed=0:00:45.13    \nframe=   19 fps=0.4 q=41.8 size=     256KiB time=00:00:00.56 bitrate=3701.5kbits/s speed=0.0124x elapsed=0:00:45.66    \nframe=   19 fps=0.4 q=41.8 size=     256KiB time=00:00:00.56 bitrate=3701.5kbits/s speed=0.0123x elapsed=0:00:46.17    \nframe=   19 fps=0.4 q=41.8 size=     256KiB time=00:00:00.56 bitrate=3701.5kbits/s speed=0.0121x elapsed=0:00:46.69    \nframe=   20 fps=0.4 q=41.6 size=     256KiB time=00:00:00.60 bitrate=3495.8kbits/s speed=0.0127x elapsed=0:00:47.22    \nframe=   20 fps=0.4 q=41.6 size=     256KiB time=00:00:00.60 bitrate=3495.8kbits/s speed=0.0126x elapsed=0:00:47.75    \nframe=   20 fps=0.4 q=41.6 size=     256KiB time=00:00:00.60 bitrate=3495.8kbits/s speed=0.0124x elapsed=0:00:48.28    \nframe=   20 fps=0.4 q=41.6 size=     256KiB time=00:00:00.60 bitrate=3495.8kbits/s speed=0.0123x elapsed=0:00:48.81    \nframe=   21 fps=0.4 q=35.1 size=     256KiB time=00:00:00.63 bitrate=3311.9kbits/s speed=0.0128x elapsed=0:00:49.34    \nframe=   22 fps=0.4 q=38.9 size=     256KiB time=00:00:00.66 bitrate=3146.3kbits/s speed=0.0134x elapsed=0:00:49.85    \nframe=   22 fps=0.4 q=38.9 size=     256KiB time=00:00:00.66 bitrate=3146.3kbits/s speed=0.0132x elapsed=0:00:50.37    \nframe=   22 fps=0.4 q=38.9 size=     256KiB time=00:00:00.66 bitrate=3146.3kbits/s speed=0.0131x elapsed=0:00:50.88    \nframe=   22 fps=0.4 q=38.9 size=     256KiB time=00:00:00.66 bitrate=3146.3kbits/s speed=0.013x elapsed=0:00:51.40    \nframe=   22 fps=0.4 q=38.9 size=     256KiB time=00:00:00.66 bitrate=3146.3kbits/s speed=0.0128x elapsed=0:00:51.93    \nframe=   22 fps=0.4 q=38.9 size=     256KiB time=00:00:00.66 bitrate=3146.3kbits/s speed=0.0127x elapsed=0:00:52.48    \nframe=   23 fps=0.4 q=41.8 size=     256KiB time=00:00:00.66 bitrate=3146.3kbits/s speed=0.0126x elapsed=0:00:53.00    \nframe=   23 fps=0.4 q=41.8 size=     256KiB time=00:00:00.70 bitrate=2996.4kbits/s speed=0.0131x elapsed=0:00:53.55    \nframe=   23 fps=0.4 q=41.8 size=     256KiB time=00:00:00.70 bitrate=2996.4kbits/s speed=0.0129x elapsed=0:00:54.09    \nframe=   23 fps=0.4 q=41.8 size=     256KiB time=00:00:00.70 bitrate=2996.4kbits/s speed=0.0128x elapsed=0:00:54.63    \nframe=   24 fps=0.4 q=41.7 size=     256KiB time=00:00:00.73 bitrate=2860.2kbits/s speed=0.0133x elapsed=0:00:55.14    \nframe=   25 fps=0.4 q=35.5 size=     256KiB time=00:00:00.76 bitrate=2735.9kbits/s speed=0.0138x elapsed=0:00:55.66    \nframe=   26 fps=0.5 q=36.2 size=     256KiB time=00:00:00.80 bitrate=2621.9kbits/s speed=0.0142x elapsed=0:00:56.18    \nframe=   26 fps=0.5 q=36.2 size=     256KiB time=00:00:00.80 bitrate=2621.9kbits/s speed=0.0141x elapsed=0:00:56.70    \nframe=   27 fps=0.5 q=41.5 size=     256KiB time=00:00:00.83 bitrate=2517.0kbits/s speed=0.0146x elapsed=0:00:57.24    \nframe=   27 fps=0.5 q=41.5 size=     256KiB time=00:00:00.83 bitrate=2517.0kbits/s speed=0.0144x elapsed=0:00:57.77    \nframe=   27 fps=0.5 q=41.5 size=     256KiB time=00:00:00.83 bitrate=2517.0kbits/s speed=0.0143x elapsed=0:00:58.36    \nframe=   27 fps=0.5 q=41.5 size=     256KiB time=00:00:00.83 bitrate=2517.0kbits/s speed=0.0141x elapsed=0:00:58.91    \nframe=   27 fps=0.5 q=41.5 size=     256KiB time=00:00:00.83 bitrate=2517.0kbits/s speed=0.014x elapsed=0:00:59.48    \nframe=   27 fps=0.4 q=41.5 size=     256KiB time=00:00:00.83 bitrate=2517.0kbits/s speed=0.0139x elapsed=0:01:00.00    \nframe=   27 fps=0.4 q=41.5 size=     256KiB time=00:00:00.83 bitrate=2517.0kbits/s speed=0.0138x elapsed=0:01:00.54    \nframe=   27 fps=0.4 q=41.5 size=     256KiB time=00:00:00.83 bitrate=2517.0kbits/s speed=0.0136x elapsed=0:01:01.05    \nframe=   27 fps=0.4 q=41.5 size=     256KiB time=00:00:00.83 bitrate=2517.0kbits/s speed=0.0135x elapsed=0:01:01.57    \nframe=   27 fps=0.4 q=41.5 size=     256KiB time=00:00:00.83 bitrate=2517.0kbits/s speed=0.0134x elapsed=0:01:02.09    \nframe=   28 fps=0.4 q=41.5 size=     256KiB time=00:00:00.86 bitrate=2420.2kbits/s speed=0.0138x elapsed=0:01:02.61    \nframe=   28 fps=0.4 q=41.5 size=     256KiB time=00:00:00.86 bitrate=2420.2kbits/s speed=0.0137x elapsed=0:01:03.14    \nframe=   28 fps=0.4 q=41.5 size=     256KiB time=00:00:00.86 bitrate=2420.2kbits/s speed=0.0136x elapsed=0:01:03.65    \nframe=   28 fps=0.4 q=41.5 size=     256KiB time=00:00:00.86 bitrate=2420.2kbits/s speed=0.0135x elapsed=0:01:04.20    \nframe=   28 fps=0.4 q=41.5 size=     256KiB time=00:00:00.86 bitrate=2420.2kbits/s speed=0.0134x elapsed=0:01:04.80    \nframe=   28 fps=0.4 q=41.5 size=     256KiB time=00:00:00.86 bitrate=2420.2kbits/s speed=0.0132x elapsed=0:01:05.43    \nframe=   29 fps=0.4 q=41.9 size=     256KiB time=00:00:00.90 bitrate=2330.6kbits/s speed=0.0136x elapsed=0:01:05.97    \nframe=   29 fps=0.4 q=41.9 size=     256KiB time=00:00:00.90 bitrate=2330.6kbits/s speed=0.0135x elapsed=0:01:06.50    \nframe=   29 fps=0.4 q=41.9 size=     256KiB time=00:00:00.90 bitrate=2330.6kbits/s speed=0.0134x elapsed=0:01:07.02    \nframe=   30 fps=0.4 q=35.2 size=     256KiB time=00:00:00.93 bitrate=2247.3kbits/s speed=0.0138x elapsed=0:01:07.57    \nframe=   30 fps=0.4 q=35.2 size=     256KiB time=00:00:00.93 bitrate=2247.3kbits/s speed=0.0137x elapsed=0:01:08.08    \nframe=   30 fps=0.4 q=35.2 size=     256KiB time=00:00:00.93 bitrate=2247.3kbits/s speed=0.0136x elapsed=0:01:08.61    \nframe=   31 fps=0.4 q=39.2 size=     512KiB time=00:00:00.96 bitrate=4339.3kbits/s speed=0.014x elapsed=0:01:09.14    \nframe=   31 fps=0.4 q=39.2 size=     512KiB time=00:00:00.96 bitrate=4339.3kbits/s speed=0.0139x elapsed=0:01:09.67    \nframe=   31 fps=0.4 q=39.2 size=     512KiB time=00:00:00.96 bitrate=4339.3kbits/s speed=0.0138x elapsed=0:01:10.20    \nframe=   31 fps=0.4 q=39.2 size=     512KiB time=00:00:00.96 bitrate=4339.3kbits/s speed=0.0137x elapsed=0:01:10.72    \nframe=   31 fps=0.4 q=39.2 size=     512KiB time=00:00:00.96 bitrate=4339.3kbits/s speed=0.0136x elapsed=0:01:11.26    \nframe=   31 fps=0.4 q=39.2 size=     512KiB time=00:00:00.96 bitrate=4339.3kbits/s speed=0.0135x elapsed=0:01:11.78    \nframe=   32 fps=0.4 q=41.8 size=     512KiB time=00:00:01.00 bitrate=4194.7kbits/s speed=0.0138x elapsed=0:01:12.32    \nframe=   32 fps=0.4 q=41.8 size=     512KiB time=00:00:01.00 bitrate=4194.7kbits/s speed=0.0137x elapsed=0:01:12.84    \nframe=   32 fps=0.4 q=41.8 size=     512KiB time=00:00:01.00 bitrate=4194.7kbits/s speed=0.0136x elapsed=0:01:13.38    \nframe=   32 fps=0.4 q=41.8 size=     512KiB time=00:00:01.00 bitrate=4194.7kbits/s speed=0.0135x elapsed=0:01:13.93    \nframe=   33 fps=0.4 q=41.6 size=     512KiB time=00:00:01.03 bitrate=4059.3kbits/s speed=0.0139x elapsed=0:01:14.45    \nframe=   33 fps=0.4 q=41.6 size=     512KiB time=00:00:01.03 bitrate=4059.3kbits/s speed=0.0138x elapsed=0:01:14.97    \nframe=   33 fps=0.4 q=41.6 size=     512KiB time=00:00:01.03 bitrate=4059.3kbits/s speed=0.0137x elapsed=0:01:15.50    \nframe=   33 fps=0.4 q=41.6 size=     512KiB time=00:00:01.03 bitrate=4059.3kbits/s speed=0.0136x elapsed=0:01:16.03    \nframe=   34 fps=0.4 q=35.6 size=     512KiB time=00:00:01.06 bitrate=3932.5kbits/s speed=0.0139x elapsed=0:01:16.56    \nframe=   34 fps=0.4 q=35.6 size=     512KiB time=00:00:01.06 bitrate=3932.5kbits/s speed=0.0138x elapsed=0:01:17.12    \nframe=   35 fps=0.5 q=38.7 size=     512KiB time=00:00:01.10 bitrate=3813.3kbits/s speed=0.0142x elapsed=0:01:17.65    \nframe=   35 fps=0.4 q=38.7 size=     512KiB time=00:00:01.10 bitrate=3813.3kbits/s speed=0.0141x elapsed=0:01:18.19    \nframe=   36 fps=0.5 q=42.0 size=     512KiB time=00:00:01.13 bitrate=3701.2kbits/s speed=0.0144x elapsed=0:01:18.74    \nframe=   36 fps=0.5 q=42.0 size=     512KiB time=00:00:01.13 bitrate=3701.2kbits/s speed=0.0143x elapsed=0:01:19.27    \nframe=   36 fps=0.5 q=42.0 size=     512KiB time=00:00:01.13 bitrate=3701.2kbits/s speed=0.0142x elapsed=0:01:19.82    \nframe=   36 fps=0.4 q=42.0 size=     512KiB time=00:00:01.13 bitrate=3701.2kbits/s speed=0.0141x elapsed=0:01:20.35    \nframe=   36 fps=0.4 q=42.0 size=     512KiB time=00:00:01.13 bitrate=3701.2kbits/s speed=0.014x elapsed=0:01:20.86    \nframe=   36 fps=0.4 q=42.0 size=     512KiB time=00:00:01.13 bitrate=3701.2kbits/s speed=0.0139x elapsed=0:01:21.38    \nframe=   36 fps=0.4 q=42.0 size=     512KiB time=00:00:01.13 bitrate=3701.2kbits/s speed=0.0138x elapsed=0:01:21.91    \nframe=   37 fps=0.4 q=41.9 size=     512KiB time=00:00:01.16 bitrate=3595.4kbits/s speed=0.0141x elapsed=0:01:22.46    \nframe=   37 fps=0.4 q=41.9 size=     512KiB time=00:00:01.16 bitrate=3595.4kbits/s speed=0.0141x elapsed=0:01:22.98    \nframe=   37 fps=0.4 q=41.9 size=     512KiB time=00:00:01.16 bitrate=3595.4kbits/s speed=0.014x elapsed=0:01:23.49    \nframe=   37 fps=0.4 q=41.9 size=     512KiB time=00:00:01.16 bitrate=3595.4kbits/s speed=0.0139x elapsed=0:01:24.00    \nframe=   37 fps=0.4 q=41.9 size=     512KiB time=00:00:01.16 bitrate=3595.4kbits/s speed=0.0138x elapsed=0:01:24.54    \nframe=   38 fps=0.4 q=41.7 size=     512KiB time=00:00:01.20 bitrate=3495.5kbits/s speed=0.0141x elapsed=0:01:25.05    \nframe=   38 fps=0.4 q=41.7 size=     512KiB time=00:00:01.20 bitrate=3495.5kbits/s speed=0.014x elapsed=0:01:25.57    \nframe=   39 fps=0.5 q=35.1 size=     512KiB time=00:00:01.23 bitrate=3401.1kbits/s speed=0.0143x elapsed=0:01:26.10    \nframe=   39 fps=0.5 q=35.1 size=     512KiB time=00:00:01.23 bitrate=3401.1kbits/s speed=0.0142x elapsed=0:01:26.62    \nframe=   39 fps=0.4 q=35.1 size=     512KiB time=00:00:01.23 bitrate=3401.1kbits/s speed=0.0142x elapsed=0:01:27.15    \nframe=   40 fps=0.5 q=38.2 size=     512KiB time=00:00:01.26 bitrate=3311.6kbits/s speed=0.0144x elapsed=0:01:27.67    \nframe=   40 fps=0.5 q=38.2 size=     512KiB time=00:00:01.26 bitrate=3311.6kbits/s speed=0.0144x elapsed=0:01:28.19    \nframe=   40 fps=0.5 q=38.2 size=     512KiB time=00:00:01.26 bitrate=3311.6kbits/s speed=0.0143x elapsed=0:01:28.72    \nframe=   40 fps=0.4 q=38.2 size=     512KiB time=00:00:01.26 bitrate=3311.6kbits/s speed=0.0142x elapsed=0:01:29.25    \nframe=   40 fps=0.4 q=38.2 size=     512KiB time=00:00:01.26 bitrate=3311.6kbits/s speed=0.0141x elapsed=0:01:29.75    \nframe=   41 fps=0.5 q=41.1 size=     512KiB time=00:00:01.30 bitrate=3226.7kbits/s speed=0.0144x elapsed=0:01:30.29    \nframe=   41 fps=0.5 q=41.1 size=     512KiB time=00:00:01.30 bitrate=3226.7kbits/s speed=0.0143x elapsed=0:01:30.83    \nframe=   42 fps=0.5 q=34.9 size=     512KiB time=00:00:01.33 bitrate=3146.0kbits/s speed=0.0146x elapsed=0:01:31.36    \nframe=   42 fps=0.5 q=34.9 size=     512KiB time=00:00:01.33 bitrate=3146.0kbits/s speed=0.0145x elapsed=0:01:31.89    \nframe=   43 fps=0.5 q=38.6 size=     512KiB time=00:00:01.36 bitrate=3069.3kbits/s speed=0.0148x elapsed=0:01:32.42    \nframe=   43 fps=0.5 q=38.6 size=     512KiB time=00:00:01.36 bitrate=3069.3kbits/s speed=0.0147x elapsed=0:01:32.95    \nframe=   43 fps=0.5 q=38.6 size=     512KiB time=00:00:01.36 bitrate=3069.3kbits/s speed=0.0146x elapsed=0:01:33.47    \nframe=   43 fps=0.5 q=38.6 size=     512KiB time=00:00:01.36 bitrate=3069.3kbits/s speed=0.0145x elapsed=0:01:34.02    \nframe=   43 fps=0.5 q=38.6 size=     512KiB time=00:00:01.36 bitrate=3069.3kbits/s speed=0.0145x elapsed=0:01:34.56    \nframe=   43 fps=0.5 q=38.6 size=     512KiB time=00:00:01.36 bitrate=3069.3kbits/s speed=0.0144x elapsed=0:01:35.10    \nframe=   44 fps=0.5 q=40.7 size=     512KiB time=00:00:01.40 bitrate=2996.2kbits/s speed=0.0146x elapsed=0:01:35.61    \nframe=   44 fps=0.5 q=40.7 size=     512KiB time=00:00:01.40 bitrate=2996.2kbits/s speed=0.0146x elapsed=0:01:36.14    \nframe=   44 fps=0.5 q=40.7 size=     512KiB time=00:00:01.40 bitrate=2996.2kbits/s speed=0.0145x elapsed=0:01:36.64    \nframe=   44 fps=0.5 q=40.7 size=     512KiB time=00:00:01.40 bitrate=2996.2kbits/s speed=0.0144x elapsed=0:01:37.18    \nframe=   44 fps=0.5 q=40.7 size=     512KiB time=00:00:01.40 bitrate=2996.2kbits/s speed=0.0143x elapsed=0:01:37.72    \nframe=   44 fps=0.4 q=40.7 size=     512KiB time=00:00:01.40 bitrate=2996.2kbits/s speed=0.0142x elapsed=0:01:38.28    \nframe=   44 fps=0.4 q=40.7 size=     512KiB time=00:00:01.40 bitrate=2996.2kbits/s speed=0.0142x elapsed=0:01:38.83    \nframe=   45 fps=0.5 q=40.9 size=     512KiB time=00:00:01.43 bitrate=2926.5kbits/s speed=0.0144x elapsed=0:01:39.35    \nframe=   46 fps=0.5 q=35.2 size=     512KiB time=00:00:01.46 bitrate=2860.0kbits/s speed=0.0147x elapsed=0:01:39.88    \nframe=   47 fps=0.5 q=39.4 size=     512KiB time=00:00:01.50 bitrate=2796.4kbits/s speed=0.0149x elapsed=0:01:40.40    \nframe=   47 fps=0.5 q=39.4 size=     512KiB time=00:00:01.50 bitrate=2796.4kbits/s speed=0.0149x elapsed=0:01:40.91    \nframe=   48 fps=0.5 q=40.9 size=     512KiB time=00:00:01.53 bitrate=2735.6kbits/s speed=0.0151x elapsed=0:01:41.43    \nframe=   48 fps=0.5 q=40.9 size=     512KiB time=00:00:01.53 bitrate=2735.6kbits/s speed=0.015x elapsed=0:01:41.95    \nframe=   48 fps=0.5 q=40.9 size=     512KiB time=00:00:01.53 bitrate=2735.6kbits/s speed=0.015x elapsed=0:01:42.47    \nframe=   48 fps=0.5 q=40.9 size=     512KiB time=00:00:01.53 bitrate=2735.6kbits/s speed=0.0149x elapsed=0:01:43.01    \nframe=   48 fps=0.5 q=40.9 size=     512KiB time=00:00:01.53 bitrate=2735.6kbits/s speed=0.0148x elapsed=0:01:43.52    \nframe=   49 fps=0.5 q=40.8 size=     512KiB time=00:00:01.56 bitrate=2677.4kbits/s speed=0.0151x elapsed=0:01:44.04    \nframe=   49 fps=0.5 q=40.8 size=     512KiB time=00:00:01.56 bitrate=2677.4kbits/s speed=0.015x elapsed=0:01:44.56    \nframe=   49 fps=0.5 q=40.8 size=     512KiB time=00:00:01.56 bitrate=2677.4kbits/s speed=0.0149x elapsed=0:01:45.08    \nframe=   49 fps=0.5 q=40.8 size=     512KiB time=00:00:01.56 bitrate=2677.4kbits/s speed=0.0148x elapsed=0:01:45.61    \nframe=   49 fps=0.5 q=40.8 size=     512KiB time=00:00:01.56 bitrate=2677.4kbits/s speed=0.0148x elapsed=0:01:46.15    \nframe=   50 fps=0.5 q=40.9 size=     512KiB time=00:00:01.60 bitrate=2621.7kbits/s speed=0.015x elapsed=0:01:46.73    \nframe=   50 fps=0.5 q=40.9 size=     512KiB time=00:00:01.60 bitrate=2621.7kbits/s speed=0.0149x elapsed=0:01:47.24    \nframe=   50 fps=0.5 q=40.9 size=     512KiB time=00:00:01.60 bitrate=2621.7kbits/s speed=0.0148x elapsed=0:01:47.77    \nframe=   50 fps=0.5 q=40.9 size=     512KiB time=00:00:01.60 bitrate=2621.7kbits/s speed=0.0148x elapsed=0:01:48.33    \nframe=   51 fps=0.5 q=35.3 size=     512KiB time=00:00:01.60 bitrate=2621.7kbits/s speed=0.0147x elapsed=0:01:48.88    \nframe=   51 fps=0.5 q=35.3 size=     512KiB time=00:00:01.63 bitrate=2568.2kbits/s speed=0.0149x elapsed=0:01:49.42    \nframe=   51 fps=0.5 q=35.3 size=     512KiB time=00:00:01.63 bitrate=2568.2kbits/s speed=0.0148x elapsed=0:01:50.02    \nframe=   51 fps=0.5 q=35.3 size=     512KiB time=00:00:01.63 bitrate=2568.2kbits/s speed=0.0148x elapsed=0:01:50.57    \nframe=   51 fps=0.5 q=35.3 size=     512KiB time=00:00:01.63 bitrate=2568.2kbits/s speed=0.0147x elapsed=0:01:51.12    \nframe=   51 fps=0.5 q=35.3 size=     512KiB time=00:00:01.63 bitrate=2568.2kbits/s speed=0.0146x elapsed=0:01:51.66    \nframe=   52 fps=0.5 q=38.5 size=     768KiB time=00:00:01.66 bitrate=3775.1kbits/s speed=0.0149x elapsed=0:01:52.18    \nframe=   52 fps=0.5 q=38.5 size=     768KiB time=00:00:01.66 bitrate=3775.1kbits/s speed=0.0148x elapsed=0:01:52.69    \nframe=   53 fps=0.5 q=41.1 size=     768KiB time=00:00:01.70 bitrate=3701.1kbits/s speed=0.015x elapsed=0:01:53.22    \nframe=   53 fps=0.5 q=41.1 size=     768KiB time=00:00:01.70 bitrate=3701.1kbits/s speed=0.0149x elapsed=0:01:53.74    \nframe=   53 fps=0.5 q=41.1 size=     768KiB time=00:00:01.70 bitrate=3701.1kbits/s speed=0.0149x elapsed=0:01:54.26    \nframe=   54 fps=0.5 q=35.3 size=     768KiB time=00:00:01.73 bitrate=3629.9kbits/s speed=0.0151x elapsed=0:01:54.78    \nframe=   54 fps=0.5 q=35.3 size=     768KiB time=00:00:01.73 bitrate=3629.9kbits/s speed=0.015x elapsed=0:01:55.28    \nframe=   54 fps=0.5 q=35.3 size=     768KiB time=00:00:01.73 bitrate=3629.9kbits/s speed=0.015x elapsed=0:01:55.80    \nframe=   54 fps=0.5 q=35.3 size=     768KiB time=00:00:01.73 bitrate=3629.9kbits/s speed=0.0149x elapsed=0:01:56.32    \nframe=   54 fps=0.5 q=35.3 size=     768KiB time=00:00:01.73 bitrate=3629.9kbits/s speed=0.0148x elapsed=0:01:56.85    \nframe=   55 fps=0.5 q=40.2 size=     768KiB time=00:00:01.76 bitrate=3561.4kbits/s speed=0.0151x elapsed=0:01:57.37    \nframe=   55 fps=0.5 q=40.2 size=     768KiB time=00:00:01.76 bitrate=3561.4kbits/s speed=0.015x elapsed=0:01:57.91    \nframe=   55 fps=0.5 q=40.2 size=     768KiB time=00:00:01.76 bitrate=3561.4kbits/s speed=0.0149x elapsed=0:01:58.45    \nframe=   56 fps=0.5 q=41.6 size=     768KiB time=00:00:01.80 bitrate=3495.4kbits/s speed=0.0151x elapsed=0:01:58.98    \nframe=   57 fps=0.5 q=35.1 size=     768KiB time=00:00:01.83 bitrate=3431.9kbits/s speed=0.0153x elapsed=0:01:59.50    \nframe=   58 fps=0.5 q=38.5 size=     768KiB time=00:00:01.86 bitrate=3370.6kbits/s speed=0.0156x elapsed=0:02:00.02    \nframe=   58 fps=0.5 q=38.5 size=     768KiB time=00:00:01.86 bitrate=3370.6kbits/s speed=0.0155x elapsed=0:02:00.54    \nframe=   58 fps=0.5 q=38.5 size=     768KiB time=00:00:01.86 bitrate=3370.6kbits/s speed=0.0154x elapsed=0:02:01.06    \nframe=   58 fps=0.5 q=38.5 size=     768KiB time=00:00:01.86 bitrate=3370.6kbits/s speed=0.0154x elapsed=0:02:01.56    \nframe=   58 fps=0.5 q=38.5 size=     768KiB time=00:00:01.86 bitrate=3370.6kbits/s speed=0.0153x elapsed=0:02:02.08    \nframe=   58 fps=0.5 q=38.5 size=     768KiB time=00:00:01.86 bitrate=3370.6kbits/s speed=0.0152x elapsed=0:02:02.60    \nframe=   59 fps=0.5 q=41.0 size=     768KiB time=00:00:01.90 bitrate=3311.5kbits/s speed=0.0154x elapsed=0:02:03.12    \nframe=   60 fps=0.5 q=40.6 size=     768KiB time=00:00:01.93 bitrate=3254.4kbits/s speed=0.0156x elapsed=0:02:03.64    \nframe=   60 fps=0.5 q=40.6 size=     768KiB time=00:00:01.93 bitrate=3254.4kbits/s speed=0.0156x elapsed=0:02:04.17    \nframe=   60 fps=0.5 q=40.6 size=     768KiB time=00:00:01.93 bitrate=3254.4kbits/s speed=0.0155x elapsed=0:02:04.70    \nframe=   61 fps=0.5 q=35.8 size=     768KiB time=00:00:01.96 bitrate=3199.2kbits/s speed=0.0157x elapsed=0:02:05.24    \nframe=   61 fps=0.5 q=35.8 size=     768KiB time=00:00:01.96 bitrate=3199.2kbits/s speed=0.0156x elapsed=0:02:05.76    \nframe=   61 fps=0.5 q=35.8 size=     768KiB time=00:00:01.96 bitrate=3199.2kbits/s speed=0.0156x elapsed=0:02:06.30    \nframe=   61 fps=0.5 q=35.8 size=     768KiB time=00:00:01.96 bitrate=3199.2kbits/s speed=0.0155x elapsed=0:02:06.83    \nframe=   62 fps=0.5 q=38.1 size=     768KiB time=00:00:02.00 bitrate=3145.9kbits/s speed=0.0157x elapsed=0:02:07.34    \nframe=   63 fps=0.5 q=41.1 size=     768KiB time=00:00:02.03 bitrate=3094.3kbits/s speed=0.0159x elapsed=0:02:07.86    \nframe=   63 fps=0.5 q=41.1 size=     768KiB time=00:00:02.03 bitrate=3094.3kbits/s speed=0.0158x elapsed=0:02:08.39    \nframe=   64 fps=0.5 q=41.1 size=     768KiB time=00:00:02.06 bitrate=3044.4kbits/s speed=0.016x elapsed=0:02:08.91    \nframe=   64 fps=0.5 q=41.1 size=     768KiB time=00:00:02.06 bitrate=3044.4kbits/s speed=0.016x elapsed=0:02:09.43    \nframe=   64 fps=0.5 q=41.1 size=     768KiB time=00:00:02.06 bitrate=3044.4kbits/s speed=0.0159x elapsed=0:02:09.94    \nframe=   65 fps=0.5 q=41.1 size=     768KiB time=00:00:02.10 bitrate=2996.1kbits/s speed=0.0161x elapsed=0:02:10.45    \nframe=   65 fps=0.5 q=41.1 size=     768KiB time=00:00:02.10 bitrate=2996.1kbits/s speed=0.016x elapsed=0:02:10.97    \nframe=   66 fps=0.5 q=35.5 size=     768KiB time=00:00:02.13 bitrate=2949.3kbits/s speed=0.0162x elapsed=0:02:11.48    \nframe=   66 fps=0.5 q=35.5 size=     768KiB time=00:00:02.13 bitrate=2949.3kbits/s speed=0.0162x elapsed=0:02:12.00    \nframe=   66 fps=0.5 q=35.5 size=     768KiB time=00:00:02.13 bitrate=2949.3kbits/s speed=0.0161x elapsed=0:02:12.52    \nframe=   67 fps=0.5 q=35.9 size=    1024KiB time=00:00:02.16 bitrate=3871.8kbits/s speed=0.0163x elapsed=0:02:13.05    \nframe=   67 fps=0.5 q=35.9 size=    1024KiB time=00:00:02.16 bitrate=3871.8kbits/s speed=0.0162x elapsed=0:02:13.58    \nframe=   67 fps=0.5 q=35.9 size=    1024KiB time=00:00:02.16 bitrate=3871.8kbits/s speed=0.0162x elapsed=0:02:14.10    \nframe=   68 fps=0.5 q=40.1 size=    1024KiB time=00:00:02.20 bitrate=3813.2kbits/s speed=0.0163x elapsed=0:02:14.61    \nframe=   69 fps=0.5 q=41.9 size=    1024KiB time=00:00:02.23 bitrate=3756.3kbits/s speed=0.0165x elapsed=0:02:15.14    \nframe=   69 fps=0.5 q=41.9 size=    1024KiB time=00:00:02.23 bitrate=3756.3kbits/s speed=0.0165x elapsed=0:02:15.67    \nframe=   70 fps=0.5 q=41.5 size=    1024KiB time=00:00:02.26 bitrate=3701.0kbits/s speed=0.0166x elapsed=0:02:16.20    \nframe=   70 fps=0.5 q=41.5 size=    1024KiB time=00:00:02.26 bitrate=3701.0kbits/s speed=0.0166x elapsed=0:02:16.71    \nframe=   70 fps=0.5 q=41.5 size=    1024KiB time=00:00:02.26 bitrate=3701.0kbits/s speed=0.0165x elapsed=0:02:17.22    \nframe=   71 fps=0.5 q=41.3 size=    1024KiB time=00:00:02.30 bitrate=3647.4kbits/s speed=0.0167x elapsed=0:02:17.76    \nframe=   71 fps=0.5 q=41.3 size=    1024KiB time=00:00:02.30 bitrate=3647.4kbits/s speed=0.0166x elapsed=0:02:18.28    \nframe=   72 fps=0.5 q=35.4 size=    1024KiB time=00:00:02.33 bitrate=3595.3kbits/s speed=0.0168x elapsed=0:02:18.80    \nframe=   73 fps=0.5 q=38.9 size=    1024KiB time=00:00:02.36 bitrate=3544.6kbits/s speed=0.017x elapsed=0:02:19.32    \nframe=   73 fps=0.5 q=38.9 size=    1024KiB time=00:00:02.36 bitrate=3544.6kbits/s speed=0.0169x elapsed=0:02:19.84    \nframe=   73 fps=0.5 q=38.9 size=    1024KiB time=00:00:02.36 bitrate=3544.6kbits/s speed=0.0169x elapsed=0:02:20.34    \nframe=   74 fps=0.5 q=41.4 size=    1024KiB time=00:00:02.40 bitrate=3495.4kbits/s speed=0.017x elapsed=0:02:20.86    \nframe=   74 fps=0.5 q=41.4 size=    1024KiB time=00:00:02.40 bitrate=3495.4kbits/s speed=0.017x elapsed=0:02:21.38    \nframe=   75 fps=0.5 q=41.5 size=    1024KiB time=00:00:02.43 bitrate=3447.5kbits/s speed=0.0171x elapsed=0:02:21.90    \nframe=   75 fps=0.5 q=41.5 size=    1024KiB time=00:00:02.43 bitrate=3447.5kbits/s speed=0.0171x elapsed=0:02:22.41    \nframe=   76 fps=0.5 q=35.6 size=    1024KiB time=00:00:02.46 bitrate=3400.9kbits/s speed=0.0173x elapsed=0:02:22.93    \nframe=   77 fps=0.5 q=38.8 size=    1024KiB time=00:00:02.50 bitrate=3355.6kbits/s speed=0.0174x elapsed=0:02:23.45    \nframe=   78 fps=0.5 q=41.7 size=    1024KiB time=00:00:02.53 bitrate=3311.4kbits/s speed=0.0176x elapsed=0:02:23.95    \nframe=   78 fps=0.5 q=41.7 size=    1024KiB time=00:00:02.53 bitrate=3311.4kbits/s speed=0.0175x elapsed=0:02:24.47    \nframe=   78 fps=0.5 q=41.7 size=    1024KiB time=00:00:02.53 bitrate=3311.4kbits/s speed=0.0175x elapsed=0:02:24.99    \nframe=   78 fps=0.5 q=41.7 size=    1024KiB time=00:00:02.53 bitrate=3311.4kbits/s speed=0.0174x elapsed=0:02:25.50    \nframe=   79 fps=0.5 q=41.4 size=    1024KiB time=00:00:02.56 bitrate=3268.4kbits/s speed=0.0176x elapsed=0:02:26.02    \nframe=   79 fps=0.5 q=41.4 size=    1024KiB time=00:00:02.56 bitrate=3268.4kbits/s speed=0.0175x elapsed=0:02:26.55    \nframe=   79 fps=0.5 q=41.4 size=    1024KiB time=00:00:02.56 bitrate=3268.4kbits/s speed=0.0175x elapsed=0:02:27.08    \nframe=   80 fps=0.5 q=41.6 size=    1024KiB time=00:00:02.60 bitrate=3226.5kbits/s speed=0.0176x elapsed=0:02:27.60    \nframe=   80 fps=0.5 q=41.6 size=    1024KiB time=00:00:02.60 bitrate=3226.5kbits/s speed=0.0176x elapsed=0:02:28.11    \nframe=   81 fps=0.5 q=35.6 size=    1024KiB time=00:00:02.63 bitrate=3185.7kbits/s speed=0.0177x elapsed=0:02:28.63    \nframe=   81 fps=0.5 q=35.6 size=    1024KiB time=00:00:02.63 bitrate=3185.7kbits/s speed=0.0177x elapsed=0:02:29.17    \nframe=   82 fps=0.5 q=39.2 size=    1280KiB time=00:00:02.66 bitrate=3932.3kbits/s speed=0.0178x elapsed=0:02:29.69    \nframe=   82 fps=0.5 q=39.2 size=    1280KiB time=00:00:02.66 bitrate=3932.3kbits/s speed=0.0177x elapsed=0:02:30.23    \nframe=   82 fps=0.5 q=39.2 size=    1280KiB time=00:00:02.66 bitrate=3932.3kbits/s speed=0.0177x elapsed=0:02:30.76    \nframe=   83 fps=0.5 q=41.8 size=    1280KiB time=00:00:02.70 bitrate=3883.7kbits/s speed=0.0178x elapsed=0:02:31.27    \nframe=   83 fps=0.5 q=41.8 size=    1280KiB time=00:00:02.70 bitrate=3883.7kbits/s speed=0.0178x elapsed=0:02:31.78    \nframe=   84 fps=0.6 q=41.6 size=    1280KiB time=00:00:02.73 bitrate=3836.4kbits/s speed=0.0179x elapsed=0:02:32.32    \nframe=   85 fps=0.6 q=36.1 size=    1280KiB time=00:00:02.76 bitrate=3790.2kbits/s speed=0.0181x elapsed=0:02:32.84    \nframe=   85 fps=0.6 q=36.1 size=    1280KiB time=00:00:02.76 bitrate=3790.2kbits/s speed=0.018x elapsed=0:02:33.36    \nframe=   85 fps=0.6 q=36.1 size=    1280KiB time=00:00:02.76 bitrate=3790.2kbits/s speed=0.018x elapsed=0:02:33.90    \nframe=   87 fps=0.6 q=42.0 size=    1280KiB time=00:00:02.83 bitrate=3701.0kbits/s speed=0.0183x elapsed=0:02:34.45    \nframe=   87 fps=0.6 q=42.0 size=    1280KiB time=00:00:02.83 bitrate=3701.0kbits/s speed=0.0183x elapsed=0:02:34.96    \nframe=   87 fps=0.6 q=42.0 size=    1280KiB time=00:00:02.83 bitrate=3701.0kbits/s speed=0.0182x elapsed=0:02:35.47    \nframe=   87 fps=0.6 q=42.0 size=    1280KiB time=00:00:02.83 bitrate=3701.0kbits/s speed=0.0182x elapsed=0:02:35.99    \nframe=   88 fps=0.6 q=41.6 size=    1280KiB time=00:00:02.86 bitrate=3657.9kbits/s speed=0.0183x elapsed=0:02:36.51    \nframe=   89 fps=0.6 q=42.0 size=    1280KiB time=00:00:02.90 bitrate=3615.9kbits/s speed=0.0185x elapsed=0:02:37.02    \nframe=   89 fps=0.6 q=42.0 size=    1280KiB time=00:00:02.90 bitrate=3615.9kbits/s speed=0.0184x elapsed=0:02:37.54    \nframe=   89 fps=0.6 q=42.0 size=    1280KiB time=00:00:02.90 bitrate=3615.9kbits/s speed=0.0183x elapsed=0:02:38.08    \nframe=   89 fps=0.6 q=42.0 size=    1280KiB time=00:00:02.90 bitrate=3615.9kbits/s speed=0.0183x elapsed=0:02:38.62    \nframe=   91 fps=0.6 q=39.2 size=    1280KiB time=00:00:02.96 bitrate=3534.6kbits/s speed=0.0186x elapsed=0:02:39.16    \nframe=   91 fps=0.6 q=39.2 size=    1280KiB time=00:00:02.96 bitrate=3534.6kbits/s speed=0.0186x elapsed=0:02:39.70    \nframe=   92 fps=0.6 q=41.9 size=    1280KiB time=00:00:03.00 bitrate=3495.4kbits/s speed=0.0187x elapsed=0:02:40.21    \nframe=   92 fps=0.6 q=41.9 size=    1280KiB time=00:00:03.00 bitrate=3495.4kbits/s speed=0.0187x elapsed=0:02:40.72    \nframe=   92 fps=0.6 q=41.9 size=    1280KiB time=00:00:03.00 bitrate=3495.4kbits/s speed=0.0186x elapsed=0:02:41.24    \nframe=   93 fps=0.6 q=42.1 size=    1280KiB time=00:00:03.03 bitrate=3457.0kbits/s speed=0.0188x elapsed=0:02:41.76    \nframe=   93 fps=0.6 q=42.1 size=    1280KiB time=00:00:03.03 bitrate=3457.0kbits/s speed=0.0187x elapsed=0:02:42.27    \nframe=   94 fps=0.6 q=36.0 size=    1280KiB time=00:00:03.06 bitrate=3419.4kbits/s speed=0.0188x elapsed=0:02:42.79    \nframe=   94 fps=0.6 q=36.0 size=    1280KiB time=00:00:03.06 bitrate=3419.4kbits/s speed=0.0188x elapsed=0:02:43.30    \nframe=   95 fps=0.6 q=39.0 size=    1536KiB time=00:00:03.10 bitrate=4059.1kbits/s speed=0.0189x elapsed=0:02:43.82    \nframe=   96 fps=0.6 q=42.2 size=    1536KiB time=00:00:03.13 bitrate=4015.9kbits/s speed=0.0191x elapsed=0:02:44.34    \nframe=   96 fps=0.6 q=42.2 size=    1536KiB time=00:00:03.13 bitrate=4015.9kbits/s speed=0.019x elapsed=0:02:44.87    \nframe=   96 fps=0.6 q=42.2 size=    1536KiB time=00:00:03.13 bitrate=4015.9kbits/s speed=0.0189x elapsed=0:02:45.39    \nframe=   97 fps=0.6 q=41.8 size=    1536KiB time=00:00:03.16 bitrate=3973.7kbits/s speed=0.0191x elapsed=0:02:45.90    \nframe=   98 fps=0.6 q=41.9 size=    1536KiB time=00:00:03.16 bitrate=3973.7kbits/s speed=0.019x elapsed=0:02:46.42    \nframe=   98 fps=0.6 q=41.9 size=    1536KiB time=00:00:03.20 bitrate=3932.3kbits/s speed=0.0192x elapsed=0:02:46.95    \nframe=   98 fps=0.6 q=41.9 size=    1536KiB time=00:00:03.20 bitrate=3932.3kbits/s speed=0.0191x elapsed=0:02:47.46    \nframe=   99 fps=0.6 q=35.8 size=    1536KiB time=00:00:03.23 bitrate=3891.7kbits/s speed=0.0192x elapsed=0:02:47.97    \nframe=   99 fps=0.6 q=35.8 size=    1536KiB time=00:00:03.23 bitrate=3891.7kbits/s speed=0.0192x elapsed=0:02:48.50    \nframe=  100 fps=0.6 q=39.2 size=    1536KiB time=00:00:03.26 bitrate=3852.0kbits/s speed=0.0193x elapsed=0:02:49.03    \nframe=  100 fps=0.6 q=39.2 size=    1536KiB time=00:00:03.26 bitrate=3852.0kbits/s speed=0.0193x elapsed=0:02:49.55    \nframe=  101 fps=0.6 q=41.8 size=    1536KiB time=00:00:03.30 bitrate=3813.1kbits/s speed=0.0194x elapsed=0:02:50.07    \nframe=  101 fps=0.6 q=41.8 size=    1536KiB time=00:00:03.30 bitrate=3813.1kbits/s speed=0.0193x elapsed=0:02:50.60    \nframe=  101 fps=0.6 q=41.8 size=    1536KiB time=00:00:03.30 bitrate=3813.1kbits/s speed=0.0193x elapsed=0:02:51.19    \nframe=  102 fps=0.6 q=41.9 size=    1536KiB time=00:00:03.33 bitrate=3775.0kbits/s speed=0.0194x elapsed=0:02:51.73    \nframe=  102 fps=0.6 q=41.9 size=    1536KiB time=00:00:03.33 bitrate=3775.0kbits/s speed=0.0194x elapsed=0:02:52.26    \nframe=  102 fps=0.6 q=41.9 size=    1536KiB time=00:00:03.33 bitrate=3775.0kbits/s speed=0.0193x elapsed=0:02:52.78    \nframe=  102 fps=0.6 q=41.9 size=    1536KiB time=00:00:03.33 bitrate=3775.0kbits/s speed=0.0192x elapsed=0:02:53.29    \nframe=  102 fps=0.6 q=41.9 size=    1536KiB time=00:00:03.33 bitrate=3775.0kbits/s speed=0.0192x elapsed=0:02:53.80    \nframe=  102 fps=0.6 q=41.9 size=    1536KiB time=00:00:03.33 bitrate=3775.0kbits/s speed=0.0191x elapsed=0:02:54.33    \nframe=  102 fps=0.6 q=41.9 size=    1536KiB time=00:00:03.33 bitrate=3775.0kbits/s speed=0.0191x elapsed=0:02:54.86    \nframe=  102 fps=0.6 q=41.9 size=    1536KiB time=00:00:03.33 bitrate=3775.0kbits/s speed=0.019x elapsed=0:02:55.39    \nframe=  102 fps=0.6 q=41.9 size=    1536KiB time=00:00:03.33 bitrate=3775.0kbits/s speed=0.0189x elapsed=0:02:55.97    \nframe=  102 fps=0.6 q=41.9 size=    1536KiB time=00:00:03.33 bitrate=3775.0kbits/s speed=0.0189x elapsed=0:02:56.50    \nframe=  102 fps=0.6 q=41.9 size=    1536KiB time=00:00:03.33 bitrate=3775.0kbits/s speed=0.0188x elapsed=0:02:57.04    \nframe=  102 fps=0.6 q=41.9 size=    1536KiB time=00:00:03.33 bitrate=3775.0kbits/s speed=0.0188x elapsed=0:02:57.55    \nframe=  103 fps=0.6 q=35.8 size=    1536KiB time=00:00:03.36 bitrate=3737.6kbits/s speed=0.0189x elapsed=0:02:58.07    \nframe=  103 fps=0.6 q=35.8 size=    1536KiB time=00:00:03.36 bitrate=3737.6kbits/s speed=0.0188x elapsed=0:02:58.60    \nframe=  103 fps=0.6 q=35.8 size=    1536KiB time=00:00:03.36 bitrate=3737.6kbits/s speed=0.0188x elapsed=0:02:59.12    \nframe=  103 fps=0.6 q=35.8 size=    1536KiB time=00:00:03.36 bitrate=3737.6kbits/s speed=0.0187x elapsed=0:02:59.64    \nframe=  103 fps=0.6 q=35.8 size=    1536KiB time=00:00:03.36 bitrate=3737.6kbits/s speed=0.0187x elapsed=0:03:00.20    \nframe=  103 fps=0.6 q=35.8 size=    1536KiB time=00:00:03.36 bitrate=3737.6kbits/s speed=0.0186x elapsed=0:03:00.74    \nframe=  103 fps=0.6 q=35.8 size=    1536KiB time=00:00:03.36 bitrate=3737.6kbits/s speed=0.0186x elapsed=0:03:01.29    \nframe=  103 fps=0.6 q=35.8 size=    1536KiB time=00:00:03.36 bitrate=3737.6kbits/s speed=0.0185x elapsed=0:03:01.85    \nframe=  104 fps=0.6 q=38.8 size=    1536KiB time=00:00:03.40 bitrate=3701.0kbits/s speed=0.0186x elapsed=0:03:02.37    \nframe=  104 fps=0.6 q=38.8 size=    1536KiB time=00:00:03.40 bitrate=3701.0kbits/s speed=0.0186x elapsed=0:03:02.91    \nframe=  104 fps=0.6 q=38.8 size=    1536KiB time=00:00:03.40 bitrate=3701.0kbits/s speed=0.0185x elapsed=0:03:03.44    \nframe=  105 fps=0.6 q=42.2 size=    1536KiB time=00:00:03.43 bitrate=3665.0kbits/s speed=0.0187x elapsed=0:03:03.97    \nframe=  105 fps=0.6 q=42.2 size=    1536KiB time=00:00:03.43 bitrate=3665.0kbits/s speed=0.0186x elapsed=0:03:04.51    \nframe=  105 fps=0.6 q=42.2 size=    1536KiB time=00:00:03.43 bitrate=3665.0kbits/s speed=0.0186x elapsed=0:03:05.08    \nframe=  106 fps=0.6 q=41.9 size=    1536KiB time=00:00:03.46 bitrate=3629.8kbits/s speed=0.0187x elapsed=0:03:05.61    \nframe=  106 fps=0.6 q=41.9 size=    1536KiB time=00:00:03.46 bitrate=3629.8kbits/s speed=0.0186x elapsed=0:03:06.14    \nframe=  106 fps=0.6 q=41.9 size=    1536KiB time=00:00:03.46 bitrate=3629.8kbits/s speed=0.0186x elapsed=0:03:06.67    \nframe=  106 fps=0.6 q=41.9 size=    1536KiB time=00:00:03.46 bitrate=3629.8kbits/s speed=0.0185x elapsed=0:03:07.19    \nframe=  106 fps=0.6 q=41.9 size=    1536KiB time=00:00:03.46 bitrate=3629.8kbits/s speed=0.0185x elapsed=0:03:07.72    \nframe=  106 fps=0.6 q=41.9 size=    1536KiB time=00:00:03.46 bitrate=3629.8kbits/s speed=0.0184x elapsed=0:03:08.25    \nframe=  107 fps=0.6 q=41.9 size=    1536KiB time=00:00:03.50 bitrate=3595.2kbits/s speed=0.0185x elapsed=0:03:08.77    \nframe=  107 fps=0.6 q=41.9 size=    1536KiB time=00:00:03.50 bitrate=3595.2kbits/s speed=0.0185x elapsed=0:03:09.32    \nframe=  107 fps=0.6 q=41.9 size=    1536KiB time=00:00:03.50 bitrate=3595.2kbits/s speed=0.0184x elapsed=0:03:09.86    \nframe=  107 fps=0.6 q=41.9 size=    1536KiB time=00:00:03.50 bitrate=3595.2kbits/s speed=0.0184x elapsed=0:03:10.42    \nframe=  108 fps=0.6 q=35.9 size=    1536KiB time=00:00:03.50 bitrate=3595.2kbits/s speed=0.0183x elapsed=0:03:10.96    \nframe=  108 fps=0.6 q=35.9 size=    1536KiB time=00:00:03.53 bitrate=3561.3kbits/s speed=0.0184x elapsed=0:03:11.51    \nframe=  108 fps=0.6 q=35.9 size=    1536KiB time=00:00:03.53 bitrate=3561.3kbits/s speed=0.0184x elapsed=0:03:12.05    \nframe=  108 fps=0.6 q=35.9 size=    1536KiB time=00:00:03.53 bitrate=3561.3kbits/s speed=0.0183x elapsed=0:03:12.56    \nframe=  108 fps=0.6 q=35.9 size=    1536KiB time=00:00:03.53 bitrate=3561.3kbits/s speed=0.0183x elapsed=0:03:13.09    \nframe=  109 fps=0.6 q=39.9 size=    1536KiB time=00:00:03.56 bitrate=3528.0kbits/s speed=0.0184x elapsed=0:03:13.63    \nframe=  109 fps=0.6 q=39.9 size=    1536KiB time=00:00:03.56 bitrate=3528.0kbits/s speed=0.0184x elapsed=0:03:14.15    \nframe=  110 fps=0.6 q=42.0 size=    1536KiB time=00:00:03.60 bitrate=3495.4kbits/s speed=0.0185x elapsed=0:03:14.67    \nframe=  110 fps=0.6 q=42.0 size=    1536KiB time=00:00:03.60 bitrate=3495.4kbits/s speed=0.0184x elapsed=0:03:15.21    \nframe=  110 fps=0.6 q=42.0 size=    1536KiB time=00:00:03.60 bitrate=3495.4kbits/s speed=0.0184x elapsed=0:03:15.76    \nframe=  110 fps=0.6 q=42.0 size=    1536KiB time=00:00:03.60 bitrate=3495.4kbits/s speed=0.0183x elapsed=0:03:16.30    \nframe=  110 fps=0.6 q=42.0 size=    1536KiB time=00:00:03.60 bitrate=3495.4kbits/s speed=0.0183x elapsed=0:03:16.81    \nframe=  110 fps=0.6 q=42.0 size=    1536KiB time=00:00:03.60 bitrate=3495.4kbits/s speed=0.0182x elapsed=0:03:17.34    \nframe=  110 fps=0.6 q=42.0 size=    1536KiB time=00:00:03.60 bitrate=3495.4kbits/s speed=0.0182x elapsed=0:03:17.88    \nframe=  110 fps=0.6 q=42.0 size=    1536KiB time=00:00:03.60 bitrate=3495.4kbits/s speed=0.0181x elapsed=0:03:18.44    \nframe=  111 fps=0.6 q=36.1 size=    1536KiB time=00:00:03.63 bitrate=3463.3kbits/s speed=0.0183x elapsed=0:03:18.97    \nframe=  111 fps=0.6 q=36.1 size=    1536KiB time=00:00:03.63 bitrate=3463.3kbits/s speed=0.0182x elapsed=0:03:19.50    \nframe=  111 fps=0.6 q=36.1 size=    1536KiB time=00:00:03.63 bitrate=3463.3kbits/s speed=0.0182x elapsed=0:03:20.03    \nframe=  111 fps=0.6 q=36.1 size=    1536KiB time=00:00:03.63 bitrate=3463.3kbits/s speed=0.0181x elapsed=0:03:20.57    \nframe=  111 fps=0.6 q=36.1 size=    1536KiB time=00:00:03.63 bitrate=3463.3kbits/s speed=0.0181x elapsed=0:03:21.10    \nframe=  112 fps=0.6 q=39.3 size=    1792KiB time=00:00:03.66 bitrate=4003.7kbits/s speed=0.0182x elapsed=0:03:21.63    \nframe=  112 fps=0.6 q=39.3 size=    1792KiB time=00:00:03.66 bitrate=4003.7kbits/s speed=0.0181x elapsed=0:03:22.19    \nframe=  112 fps=0.6 q=39.3 size=    1792KiB time=00:00:03.66 bitrate=4003.7kbits/s speed=0.0181x elapsed=0:03:22.79    \nframe=  112 fps=0.6 q=39.3 size=    1792KiB time=00:00:03.66 bitrate=4003.7kbits/s speed=0.018x elapsed=0:03:23.40    \nframe=  112 fps=0.5 q=39.3 size=    1792KiB time=00:00:03.66 bitrate=4003.7kbits/s speed=0.018x elapsed=0:03:23.97    \nframe=  112 fps=0.5 q=39.3 size=    1792KiB time=00:00:03.66 bitrate=4003.7kbits/s speed=0.0179x elapsed=0:03:24.53    \nframe=  112 fps=0.5 q=39.3 size=    1792KiB time=00:00:03.66 bitrate=4003.7kbits/s speed=0.0179x elapsed=0:03:25.12    \nframe=  112 fps=0.5 q=39.3 size=    1792KiB time=00:00:03.66 bitrate=4003.7kbits/s speed=0.0178x elapsed=0:03:25.69    \nframe=  112 fps=0.5 q=39.3 size=    1792KiB time=00:00:03.66 bitrate=4003.7kbits/s speed=0.0178x elapsed=0:03:26.26    \nframe=  113 fps=0.5 q=42.0 size=    1792KiB time=00:00:03.70 bitrate=3967.7kbits/s speed=0.0179x elapsed=0:03:26.78    \nframe=  113 fps=0.5 q=42.0 size=    1792KiB time=00:00:03.70 bitrate=3967.7kbits/s speed=0.0178x elapsed=0:03:27.31    \nframe=  114 fps=0.5 q=36.1 size=    1792KiB time=00:00:03.73 bitrate=3932.3kbits/s speed=0.018x elapsed=0:03:27.81    \nframe=  114 fps=0.5 q=36.1 size=    1792KiB time=00:00:03.73 bitrate=3932.3kbits/s speed=0.0179x elapsed=0:03:28.33    \nframe=  115 fps=0.6 q=40.8 size=    1792KiB time=00:00:03.76 bitrate=3897.5kbits/s speed=0.018x elapsed=0:03:28.84    \nframe=  115 fps=0.5 q=40.8 size=    1792KiB time=00:00:03.76 bitrate=3897.5kbits/s speed=0.018x elapsed=0:03:29.36    \nframe=  115 fps=0.5 q=40.8 size=    1792KiB time=00:00:03.76 bitrate=3897.5kbits/s speed=0.0179x elapsed=0:03:29.89    \nframe=  115 fps=0.5 q=40.8 size=    1792KiB time=00:00:03.76 bitrate=3897.5kbits/s speed=0.0179x elapsed=0:03:30.43    \nframe=  116 fps=0.5 q=41.8 size=    1792KiB time=00:00:03.80 bitrate=3863.3kbits/s speed=0.018x elapsed=0:03:30.95    \nframe=  117 fps=0.6 q=35.9 size=    1792KiB time=00:00:03.83 bitrate=3829.7kbits/s speed=0.0181x elapsed=0:03:31.46    \nframe=  118 fps=0.6 q=39.3 size=    1792KiB time=00:00:03.86 bitrate=3796.7kbits/s speed=0.0182x elapsed=0:03:31.99    \nframe=  118 fps=0.6 q=39.3 size=    1792KiB time=00:00:03.86 bitrate=3796.7kbits/s speed=0.0182x elapsed=0:03:32.52    \nframe=  119 fps=0.6 q=42.1 size=    1792KiB time=00:00:03.90 bitrate=3764.2kbits/s speed=0.0183x elapsed=0:03:33.04    \nframe=  119 fps=0.6 q=42.1 size=    1792KiB time=00:00:03.90 bitrate=3764.2kbits/s speed=0.0183x elapsed=0:03:33.55    \nframe=  119 fps=0.6 q=42.1 size=    1792KiB time=00:00:03.90 bitrate=3764.2kbits/s speed=0.0182x elapsed=0:03:34.06    \nframe=  119 fps=0.6 q=42.1 size=    1792KiB time=00:00:03.90 bitrate=3764.2kbits/s speed=0.0182x elapsed=0:03:34.58    \nframe=  120 fps=0.6 q=41.5 size=    1792KiB time=00:00:03.93 bitrate=3732.3kbits/s speed=0.0183x elapsed=0:03:35.10    \nframe=  120 fps=0.6 q=41.5 size=    1792KiB time=00:00:03.93 bitrate=3732.3kbits/s speed=0.0182x elapsed=0:03:35.64    \nframe=  121 fps=0.6 q=35.8 size=    1792KiB time=00:00:03.96 bitrate=3700.9kbits/s speed=0.0183x elapsed=0:03:36.16    \nframe=  121 fps=0.6 q=35.8 size=    1792KiB time=00:00:03.96 bitrate=3700.9kbits/s speed=0.0183x elapsed=0:03:36.67    \nframe=  122 fps=0.6 q=38.5 size=    1792KiB time=00:00:04.00 bitrate=3670.1kbits/s speed=0.0184x elapsed=0:03:37.19    \nframe=  122 fps=0.6 q=38.5 size=    1792KiB time=00:00:04.00 bitrate=3670.1kbits/s speed=0.0184x elapsed=0:03:37.71    \nframe=  122 fps=0.6 q=38.5 size=    1792KiB time=00:00:04.00 bitrate=3670.1kbits/s speed=0.0183x elapsed=0:03:38.23    \nframe=  123 fps=0.6 q=42.1 size=    1792KiB time=00:00:04.03 bitrate=3639.8kbits/s speed=0.0184x elapsed=0:03:38.75    \nframe=  123 fps=0.6 q=42.1 size=    1792KiB time=00:00:04.03 bitrate=3639.8kbits/s speed=0.0184x elapsed=0:03:39.27    \nframe=  123 fps=0.6 q=42.1 size=    1792KiB time=00:00:04.03 bitrate=3639.8kbits/s speed=0.0183x elapsed=0:03:39.80    \nframe=  124 fps=0.6 q=41.3 size=    1792KiB time=00:00:04.06 bitrate=3609.9kbits/s speed=0.0185x elapsed=0:03:40.34    \nframe=  125 fps=0.6 q=41.3 size=    1792KiB time=00:00:04.10 bitrate=3580.6kbits/s speed=0.0186x elapsed=0:03:40.87    \nframe=  125 fps=0.6 q=41.3 size=    1792KiB time=00:00:04.10 bitrate=3580.6kbits/s speed=0.0185x elapsed=0:03:41.37    \nframe=  125 fps=0.6 q=41.3 size=    1792KiB time=00:00:04.10 bitrate=3580.6kbits/s speed=0.0185x elapsed=0:03:41.90    \nframe=  126 fps=0.6 q=35.6 size=    1792KiB time=00:00:04.13 bitrate=3551.7kbits/s speed=0.0186x elapsed=0:03:42.43    \nframe=  126 fps=0.6 q=35.6 size=    1792KiB time=00:00:04.13 bitrate=3551.7kbits/s speed=0.0185x elapsed=0:03:42.94    \nframe=  126 fps=0.6 q=35.6 size=    1792KiB time=00:00:04.13 bitrate=3551.7kbits/s speed=0.0185x elapsed=0:03:43.46    \nframe=  126 fps=0.6 q=35.6 size=    1792KiB time=00:00:04.13 bitrate=3551.7kbits/s speed=0.0185x elapsed=0:03:44.00    \nframe=  126 fps=0.6 q=35.6 size=    1792KiB time=00:00:04.13 bitrate=3551.7kbits/s speed=0.0184x elapsed=0:03:44.50    \nframe=  127 fps=0.6 q=39.4 size=    2048KiB time=00:00:04.16 bitrate=4026.6kbits/s speed=0.0185x elapsed=0:03:45.03    \nframe=  127 fps=0.6 q=39.4 size=    2048KiB time=00:00:04.16 bitrate=4026.6kbits/s speed=0.0185x elapsed=0:03:45.54    \nframe=  127 fps=0.6 q=39.4 size=    2048KiB time=00:00:04.16 bitrate=4026.6kbits/s speed=0.0184x elapsed=0:03:46.08    \nframe=  128 fps=0.6 q=41.1 size=    2048KiB time=00:00:04.20 bitrate=3994.7kbits/s speed=0.0185x elapsed=0:03:46.60    \nframe=  129 fps=0.6 q=35.6 size=    2048KiB time=00:00:04.23 bitrate=3963.2kbits/s speed=0.0186x elapsed=0:03:47.13    \nframe=  129 fps=0.6 q=35.6 size=    2048KiB time=00:00:04.23 bitrate=3963.2kbits/s speed=0.0186x elapsed=0:03:47.65    \nframe=  129 fps=0.6 q=35.6 size=    2048KiB time=00:00:04.23 bitrate=3963.2kbits/s speed=0.0186x elapsed=0:03:48.18    \nframe=  129 fps=0.6 q=35.6 size=    2048KiB time=00:00:04.23 bitrate=3963.2kbits/s speed=0.0185x elapsed=0:03:48.71    \nframe=  130 fps=0.6 q=38.8 size=    2048KiB time=00:00:04.26 bitrate=3932.2kbits/s speed=0.0186x elapsed=0:03:49.23    \nframe=  130 fps=0.6 q=38.8 size=    2048KiB time=00:00:04.26 bitrate=3932.2kbits/s speed=0.0186x elapsed=0:03:49.76    \nframe=  130 fps=0.6 q=38.8 size=    2048KiB time=00:00:04.26 bitrate=3932.2kbits/s speed=0.0185x elapsed=0:03:50.28    \nframe=  130 fps=0.6 q=38.8 size=    2048KiB time=00:00:04.26 bitrate=3932.2kbits/s speed=0.0185x elapsed=0:03:50.80    \nframe=  130 fps=0.6 q=38.8 size=    2048KiB time=00:00:04.26 bitrate=3932.2kbits/s speed=0.0184x elapsed=0:03:51.32    \nframe=  131 fps=0.6 q=40.5 size=    2048KiB time=00:00:04.30 bitrate=3901.8kbits/s speed=0.0185x elapsed=0:03:51.85    \nframe=  131 fps=0.6 q=40.5 size=    2048KiB time=00:00:04.30 bitrate=3901.8kbits/s speed=0.0185x elapsed=0:03:52.37    \nframe=  131 fps=0.6 q=40.5 size=    2048KiB time=00:00:04.30 bitrate=3901.8kbits/s speed=0.0185x elapsed=0:03:52.90    \nframe=  131 fps=0.6 q=40.5 size=    2048KiB time=00:00:04.30 bitrate=3901.8kbits/s speed=0.0184x elapsed=0:03:53.41    \nframe=  131 fps=0.6 q=40.5 size=    2048KiB time=00:00:04.30 bitrate=3901.8kbits/s speed=0.0184x elapsed=0:03:53.93    \nframe=  131 fps=0.6 q=40.5 size=    2048KiB time=00:00:04.30 bitrate=3901.8kbits/s speed=0.0183x elapsed=0:03:54.47    \nframe=  132 fps=0.6 q=40.9 size=    2048KiB time=00:00:04.30 bitrate=3901.8kbits/s speed=0.0183x elapsed=0:03:55.00    \nframe=  132 fps=0.6 q=40.9 size=    2048KiB time=00:00:04.33 bitrate=3871.7kbits/s speed=0.0184x elapsed=0:03:55.58    \nframe=  133 fps=0.6 q=35.8 size=    2048KiB time=00:00:04.36 bitrate=3842.2kbits/s speed=0.0185x elapsed=0:03:56.11    \nframe=  133 fps=0.6 q=35.8 size=    2048KiB time=00:00:04.36 bitrate=3842.2kbits/s speed=0.0185x elapsed=0:03:56.65    \nframe=  133 fps=0.6 q=35.8 size=    2048KiB time=00:00:04.36 bitrate=3842.2kbits/s speed=0.0184x elapsed=0:03:57.22    \nframe=  133 fps=0.6 q=35.8 size=    2048KiB time=00:00:04.36 bitrate=3842.2kbits/s speed=0.0184x elapsed=0:03:57.75    \nframe=  133 fps=0.6 q=35.8 size=    2048KiB time=00:00:04.36 bitrate=3842.2kbits/s speed=0.0183x elapsed=0:03:58.28    \nframe=  134 fps=0.6 q=36.1 size=    2048KiB time=00:00:04.40 bitrate=3813.1kbits/s speed=0.0184x elapsed=0:03:58.80    \nframe=  134 fps=0.6 q=36.1 size=    2048KiB time=00:00:04.40 bitrate=3813.1kbits/s speed=0.0184x elapsed=0:03:59.32    \nframe=  134 fps=0.6 q=36.1 size=    2048KiB time=00:00:04.40 bitrate=3813.1kbits/s speed=0.0183x elapsed=0:03:59.89    \nframe=  135 fps=0.6 q=41.8 size=    2048KiB time=00:00:04.43 bitrate=3784.4kbits/s speed=0.0184x elapsed=0:04:00.43    \nframe=  135 fps=0.6 q=41.8 size=    2048KiB time=00:00:04.43 bitrate=3784.4kbits/s speed=0.0184x elapsed=0:04:00.98    \nframe=  135 fps=0.6 q=41.8 size=    2048KiB time=00:00:04.43 bitrate=3784.4kbits/s speed=0.0184x elapsed=0:04:01.54    \nframe=  135 fps=0.6 q=41.8 size=    2048KiB time=00:00:04.43 bitrate=3784.4kbits/s speed=0.0183x elapsed=0:04:02.10    \nframe=  136 fps=0.6 q=41.2 size=    2048KiB time=00:00:04.46 bitrate=3756.2kbits/s speed=0.0184x elapsed=0:04:02.63    \nframe=  137 fps=0.6 q=41.5 size=    2048KiB time=00:00:04.50 bitrate=3728.3kbits/s speed=0.0185x elapsed=0:04:03.17    \nframe=  137 fps=0.6 q=41.5 size=    2048KiB time=00:00:04.50 bitrate=3728.3kbits/s speed=0.0185x elapsed=0:04:03.68    \nframe=  137 fps=0.6 q=41.5 size=    2048KiB time=00:00:04.50 bitrate=3728.3kbits/s speed=0.0184x elapsed=0:04:04.28    \nframe=  137 fps=0.6 q=41.5 size=    2048KiB time=00:00:04.50 bitrate=3728.3kbits/s speed=0.0184x elapsed=0:04:04.87    \nframe=  137 fps=0.6 q=41.5 size=    2048KiB time=00:00:04.50 bitrate=3728.3kbits/s speed=0.0183x elapsed=0:04:05.51    \nframe=  137 fps=0.6 q=41.5 size=    2048KiB time=00:00:04.50 bitrate=3728.3kbits/s speed=0.0183x elapsed=0:04:06.13    \nframe=  137 fps=0.6 q=41.5 size=    2048KiB time=00:00:04.50 bitrate=3728.3kbits/s speed=0.0182x elapsed=0:04:06.70    \nframe=  137 fps=0.6 q=41.5 size=    2048KiB time=00:00:04.50 bitrate=3728.3kbits/s speed=0.0182x elapsed=0:04:07.25    \nframe=  137 fps=0.6 q=41.5 size=    2048KiB time=00:00:04.50 bitrate=3728.3kbits/s speed=0.0182x elapsed=0:04:07.81    \nframe=  138 fps=0.6 q=36.0 size=    2048KiB time=00:00:04.53 bitrate=3700.9kbits/s speed=0.0183x elapsed=0:04:08.35    \nframe=  138 fps=0.6 q=36.0 size=    2048KiB time=00:00:04.53 bitrate=3700.9kbits/s speed=0.0182x elapsed=0:04:08.87    \nframe=  138 fps=0.6 q=36.0 size=    2048KiB time=00:00:04.53 bitrate=3700.9kbits/s speed=0.0182x elapsed=0:04:09.41    \nframe=  138 fps=0.6 q=36.0 size=    2048KiB time=00:00:04.53 bitrate=3700.9kbits/s speed=0.0181x elapsed=0:04:09.94    \nframe=  139 fps=0.6 q=39.0 size=    2048KiB time=00:00:04.56 bitrate=3673.9kbits/s speed=0.0182x elapsed=0:04:10.45    \nframe=  139 fps=0.6 q=39.0 size=    2048KiB time=00:00:04.56 bitrate=3673.9kbits/s speed=0.0182x elapsed=0:04:10.98    \nframe=  139 fps=0.6 q=39.0 size=    2048KiB time=00:00:04.56 bitrate=3673.9kbits/s speed=0.0182x elapsed=0:04:11.50    \nframe=  139 fps=0.6 q=39.0 size=    2048KiB time=00:00:04.56 bitrate=3673.9kbits/s speed=0.0181x elapsed=0:04:12.04    \nframe=  140 fps=0.6 q=42.0 size=    2048KiB time=00:00:04.60 bitrate=3647.3kbits/s speed=0.0182x elapsed=0:04:12.59    \nframe=  140 fps=0.6 q=42.0 size=    2048KiB time=00:00:04.60 bitrate=3647.3kbits/s speed=0.0182x elapsed=0:04:13.12    \nframe=  140 fps=0.6 q=42.0 size=    2048KiB time=00:00:04.60 bitrate=3647.3kbits/s speed=0.0181x elapsed=0:04:13.63    \nframe=  141 fps=0.6 q=41.8 size=    2048KiB time=00:00:04.63 bitrate=3621.1kbits/s speed=0.0182x elapsed=0:04:14.15    \nframe=  141 fps=0.6 q=41.8 size=    2048KiB time=00:00:04.63 bitrate=3621.1kbits/s speed=0.0182x elapsed=0:04:14.68    \nframe=  141 fps=0.6 q=41.8 size=    2048KiB time=00:00:04.63 bitrate=3621.1kbits/s speed=0.0182x elapsed=0:04:15.20    \nframe=  142 fps=0.6 q=36.8 size=    2048KiB time=00:00:04.66 bitrate=3595.2kbits/s speed=0.0182x elapsed=0:04:15.72    \nframe=  143 fps=0.6 q=40.4 size=    2304KiB time=00:00:04.70 bitrate=4015.9kbits/s speed=0.0183x elapsed=0:04:16.24    \nframe=  143 fps=0.6 q=40.4 size=    2304KiB time=00:00:04.70 bitrate=4015.9kbits/s speed=0.0183x elapsed=0:04:16.78    \nframe=  144 fps=0.6 q=41.6 size=    2304KiB time=00:00:04.73 bitrate=3987.6kbits/s speed=0.0184x elapsed=0:04:17.31    \nframe=  144 fps=0.6 q=41.6 size=    2304KiB time=00:00:04.73 bitrate=3987.6kbits/s speed=0.0184x elapsed=0:04:17.83    \nframe=  144 fps=0.6 q=41.6 size=    2304KiB time=00:00:04.73 bitrate=3987.6kbits/s speed=0.0183x elapsed=0:04:18.35    \nframe=  145 fps=0.6 q=41.8 size=    2304KiB time=00:00:04.76 bitrate=3959.7kbits/s speed=0.0184x elapsed=0:04:18.87    \nframe=  145 fps=0.6 q=41.8 size=    2304KiB time=00:00:04.76 bitrate=3959.7kbits/s speed=0.0184x elapsed=0:04:19.38    \nframe=  145 fps=0.6 q=41.8 size=    2304KiB time=00:00:04.76 bitrate=3959.7kbits/s speed=0.0183x elapsed=0:04:19.91    \nframe=  145 fps=0.6 q=41.8 size=    2304KiB time=00:00:04.76 bitrate=3959.7kbits/s speed=0.0183x elapsed=0:04:20.43    \nframe=  146 fps=0.6 q=41.9 size=    2304KiB time=00:00:04.80 bitrate=3932.2kbits/s speed=0.0184x elapsed=0:04:20.95    \nframe=  146 fps=0.6 q=41.9 size=    2304KiB time=00:00:04.80 bitrate=3932.2kbits/s speed=0.0184x elapsed=0:04:21.46    \nframe=  146 fps=0.6 q=41.9 size=    2304KiB time=00:00:04.80 bitrate=3932.2kbits/s speed=0.0183x elapsed=0:04:21.98    \nframe=  147 fps=0.6 q=39.0 size=    2304KiB time=00:00:04.83 bitrate=3905.1kbits/s speed=0.0184x elapsed=0:04:22.49    \nframe=  148 fps=0.6 q=39.2 size=    2304KiB time=00:00:04.86 bitrate=3878.4kbits/s speed=0.0185x elapsed=0:04:23.00    \nframe=  149 fps=0.6 q=41.9 size=    2304KiB time=00:00:04.90 bitrate=3852.0kbits/s speed=0.0186x elapsed=0:04:23.53    \n[mp4 @ 000002213c059740] Starting second pass: moving the moov atom to the beginning of the file\n[out#0/mp4 @ 000002213c04ab00] video:2413KiB audio:0KiB subtitle:0KiB other streams:0KiB global headers:2KiB muxing overhead: 0.211719%\nframe=  150 fps=0.6 q=41.7 Lsize=    2418KiB time=00:00:04.93 bitrate=4015.8kbits/s speed=0.0187x elapsed=0:04:23.75    \nx265 [info]: frame I:      1, Avg QP:33.74  kb/s: 28039.20\nx265 [info]: frame P:     36, Avg QP:36.03  kb/s: 11545.07\nx265 [info]: frame B:    113, Avg QP:40.97  kb/s: 1321.08 \nx265 [info]: Weighted P-Frames: Y:63.9% UV:58.3%\n\nencoded 150 frames in 262.98s (0.57 fps), 3952.96 kb/s, Avg QP:39.74\n",
  "seconds": 264.1655628681183,
  "probe_out": {}
}